<?xml version="1.0" encoding="UTF-8"?>
<svg xmlns="http://www.w3.org/2000/svg" id="Layer_3" data-name="Layer 3" viewBox="0 0 64 64" width="512px" height="512px"><path d="M24,45H21V44a3,3,0,0,0-3-3H17V4a3,3,0,0,0-6,0V41H10a3,3,0,0,0-3,3v1H4a3,3,0,0,0-3,3v4a1,1,0,0,0,1,1h.953a24.805,24.805,0,0,1-1.739,8.272l-.143.357A1,1,0,0,0,2,63H26a1,1,0,0,0,.929-1.371l-.143-.358A24.8,24.8,0,0,1,25.047,53H26a1,1,0,0,0,1-1V48A3,3,0,0,0,24,45ZM13,4a1,1,0,0,1,2,0V41H13ZM9,44a1,1,0,0,1,1-1h8a1,1,0,0,1,1,1v1H9ZM3,48a1,1,0,0,1,1-1H24a1,1,0,0,1,1,1v3H3ZM24.546,61H3.454a26.793,26.793,0,0,0,1.5-8H7v6H9V53h2v6h2V53h2v6h2V53h2v6h2V53h2.042A26.787,26.787,0,0,0,24.546,61Z" fill="#FFFFFF"/><path d="M60,27h-.106a5.008,5.008,0,0,0-4.31-3.966A4.983,4.983,0,0,0,50.057,20.1a4.974,4.974,0,0,0-8.114,0,4.983,4.983,0,0,0-5.527,2.938A5.008,5.008,0,0,0,32.106,27H32a3,3,0,0,0-3,3v2a2.993,2.993,0,0,0,2.111,2.85l3.654,25.574A3.014,3.014,0,0,0,37.734,63H54.266a3.014,3.014,0,0,0,2.969-2.576L60.889,34.85A2.992,2.992,0,0,0,63,32V30A3,3,0,0,0,60,27ZM36.931,25c.037,0,.136.015.173.016a1.013,1.013,0,0,0,1-.752,2.954,2.954,0,0,1,3.95-2.057,1,1,0,0,0,1.255-.5,2.975,2.975,0,0,1,5.38,0,1,1,0,0,0,1.255.5,2.955,2.955,0,0,1,3.95,2.057.984.984,0,0,0,1,.752c.058,0,.116-.008.1-.013a3,3,0,0,1,2.816,2H34.183A2.964,2.964,0,0,1,36.931,25ZM54.266,61H37.734a1,1,0,0,1-.989-.859L36.582,59H55.418l-.163,1.142A1,1,0,0,1,54.266,61ZM55.7,57H36.3L33.153,35H40a1,1,0,0,1,1,1,4.977,4.977,0,0,0,2,3.974V51a3,3,0,0,0,6,0V39.974A4.977,4.977,0,0,0,51,36a1,1,0,0,1,1-1h6.847ZM45,40.9a5,5,0,0,0,2,0V51a1,1,0,0,1-2,0ZM61,32a1,1,0,0,1-1,1H52a3,3,0,0,0-3,3,3,3,0,0,1-6,0,3,3,0,0,0-3-3H32a1,1,0,0,1-1-1V30a1,1,0,0,1,1-1H60a1,1,0,0,1,1,1Z" fill="#FFFFFF"/><circle cx="46" cy="35" r="2" fill="#FFFFFF"/><path d="M34,15a4,4,0,1,0-4,4A4,4,0,0,0,34,15Zm-6,0a2,2,0,1,1,2,2A2,2,0,0,1,28,15Z" fill="#FFFFFF"/><path d="M40,9a4,4,0,1,0-4-4A4,4,0,0,0,40,9Zm0-6a2,2,0,1,1-2,2A2,2,0,0,1,40,3Z" fill="#FFFFFF"/><path d="M59,21a4,4,0,1,0-4-4A4,4,0,0,0,59,21Zm0-6a2,2,0,1,1-2,2A2,2,0,0,1,59,15Z" fill="#FFFFFF"/></svg>
