<?xml version="1.0"?>
<svg xmlns="http://www.w3.org/2000/svg" id="icons" enable-background="new 0 0 64 64" height="512px" viewBox="0 0 64 64" width="512px"><path d="m11.998 23.992h21.998c4.963 0 9-4.036 9-8.996 0-4.962-4.037-9-9-9h-21.998c-4.963 0-9 4.038-9 9 0 4.96 4.037 8.996 9 8.996zm0-15.996h21.998c3.859 0 7 3.14 7 7 0 3.857-3.141 6.996-7 6.996h-21.998c-3.859 0-7-3.139-7-6.996 0-3.86 3.141-7 7-7z" fill="#FFFFFF"/><path d="m11.998 61.004h21.998c6.617 0 12-5.383 12-12v-34.008c0-6.617-5.383-12-12-12h-21.998c-6.617 0-12 5.383-12 12v34.008c0 6.617 5.383 12 12 12zm21.998-2h-21.998c-4.286 0-7.941-2.717-9.36-6.514 2.2 2.745 5.576 4.51 9.36 4.51h21.998c3.784 0 7.16-1.765 9.36-4.51-1.418 3.797-5.074 6.514-9.36 6.514zm0-30.012h-21.998c-4.286 0-7.941-2.715-9.36-6.51 2.201 2.744 5.576 4.508 9.36 4.508h21.998c3.784 0 7.159-1.764 9.36-4.508-1.418 3.795-5.074 6.51-9.36 6.51zm-21.998-23.996h21.998c5.514 0 10 4.486 10 10 0 5.511-4.486 9.994-10 9.994h-21.998c-5.514 0-10-4.483-10-9.994 0-5.515 4.486-10 10-10zm0 25.996h21.998c4.172 0 7.849-2.141 10-5.378v19.386c0 5.514-4.486 10-10 10h-21.998c-5.514 0-10-4.486-10-10v-19.387c2.151 3.238 5.828 5.379 10 5.379z" fill="#FFFFFF"/><path d="m49.002 45.73v4.275c0 .553.447 1 1 1s1-.447 1-1v-3.998h1v.994c0 .553.447 1 1 1s1-.447 1-1v-.994h1v8.002c0 .553.447 1 1 1s1-.447 1-1v-8.002h1v1.996c0 .553.447 1 1 1s1-.447 1-1v-1.996h1v3.998c0 .553.447 1 1 1s1-.447 1-1v-4.276c.595-.347 1-.985 1-1.722v-12.004c0-2.199-1.783-3.987-3.98-3.998-.007 0-.013-.004-.02-.004h-1.002v-18c0-1.654-1.345-2.999-2.998-2.999-1.654 0-3 1.345-3 2.999v18h-1c-2.207 0-4.002 1.795-4.002 4.002v12.004c0 .738.406 1.377 1.002 1.723zm.998-1.722v-1h12.002v1zm12.002-3h-12.002v-6.021h12.002zm-7-31.007c0-.551.448-1 1-1 .551 0 .998.449.998.999v18h-1.998zm-3 20h7.99c.004 0 .006.002.01.002 1.103 0 2 .897 2 2v.983h-12.002v-.983c0-1.104.898-2.002 2.002-2.002z" fill="#FFFFFF"/><path d="m23.002 51.996c4.963 0 9-4.037 9-9s-4.037-9-9-9-9 4.037-9 9 4.037 9 9 9zm0-16c3.859 0 7 3.141 7 7s-3.141 7-7 7-7-3.141-7-7 3.141-7 7-7z" fill="#FFFFFF"/><path d="m20.002 43.004h6c.553 0 1-.447 1-1s-.447-1-1-1h-6c-.553 0-1 .447-1 1s.447 1 1 1z" fill="#FFFFFF"/><path d="m24.002 44.004h-2c-.553 0-1 .447-1 1s.447 1 1 1h2c.553 0 1-.447 1-1s-.447-1-1-1z" fill="#FFFFFF"/></svg>
