<?xml version="1.0" encoding="iso-8859-1"?>
<!-- Generator: Adobe Illustrator 17.1.0, SVG Export Plug-In . SVG Version: 6.00 Build 0)  -->
<!DOCTYPE svg PUBLIC "-//W3C//DTD SVG 1.1//EN" "http://www.w3.org/Graphics/SVG/1.1/DTD/svg11.dtd">
<svg xmlns="http://www.w3.org/2000/svg" xmlns:xlink="http://www.w3.org/1999/xlink" version="1.1" id="Capa_1" x="0px" y="0px" viewBox="0 0 196.251 196.251" style="enable-background:new 0 0 196.251 196.251;" xml:space="preserve" width="512px" height="512px">
<path d="M17.626,196.251c-4.942,0-9.695-2.095-13.04-5.749c-6.393-6.981-6.003-17.848,0.886-24.738l1.391-1.39  c1.826-1.826,3.781-3.56,5.812-5.152c17.642-13.84,51.646-43.272,59.678-51.303c10.3-10.301-4.942-29.231-9.859-34.788  c-0.39-0.454-0.766-0.869-1.158-1.274l-0.345-0.363c-0.951-0.98-0.939-2.543,0.026-3.509L89.561,39.44  c1.336-1.482,20.978-23.208,30.119-30.084c9.501-7.146,18.531-9.211,18.911-9.295c0.834-0.187,1.706,0.068,2.31,0.673l2.924,2.924  c0.627,0.627,0.872,1.535,0.655,2.386c0.835-0.217,1.749,0.017,2.386,0.655l3.085,3.085c0.635,0.634,0.88,1.56,0.645,2.425  l-0.443,1.624l0.576-0.393c0.993-0.678,2.327-0.552,3.176,0.297l5.69,5.689c0.601,0.601,0.855,1.466,0.676,2.296l-0.854,3.953  l2.648-1.342c0.965-0.489,2.133-0.302,2.898,0.462L167,26.832c0.726,0.726,0.927,1.811,0.537,2.738  c0.923-0.39,2.01-0.191,2.738,0.537l4.425,4.425c0.777,0.777,0.956,1.97,0.44,2.941l-1.399,2.632l2.271-1.468  c0.991-0.64,2.292-0.5,3.125,0.332l4.021,4.021c0.735,0.735,0.939,1.849,0.511,2.797l-0.023,0.052  c0.935-0.451,2.083-0.277,2.848,0.487l3.812,3.812c0.735,0.735,0.939,1.849,0.511,2.796l-1.018,2.255l1.842-1.078  c0.982-0.574,2.227-0.413,3.031,0.391l0.812,0.813c0.604,0.604,0.857,1.475,0.672,2.31c-0.084,0.379-2.149,9.409-9.295,18.91  c-6.876,9.142-28.602,28.783-30.084,30.119l-28.545,28.544c-0.469,0.469-1.104,0.732-1.768,0.732c-0.001,0-0.003,0-0.004,0  c-0.665-0.001-1.301-0.267-1.77-0.738L124.486,135c-0.043-0.043-0.085-0.087-0.126-0.132c-0.128-0.122-0.346-0.327-0.639-0.596  l0.164-0.2c-0.016-0.044-0.031-0.088-0.044-0.133l-0.219,0.241c-7.433-6.788-18.409-14.041-26.921-14.041  c-3.457,0-6.28,1.143-8.631,3.494c-8.88,8.88-39.538,44.647-52.91,61.728c-1.547,1.977-3.227,3.882-4.993,5.665  c-0.017,0.017-0.033,0.034-0.05,0.051l0,0c-0.001,0.001-0.001,0.002-0.002,0.003l0,0l0,0c-0.012,0.012-0.023,0.023-0.035,0.035  l-0.122,0.122c-0.031,0.031-0.063,0.061-0.095,0.089C26.542,194.509,22.213,196.25,17.626,196.251z M66.246,69.826  c0.006,0.007,0.012,0.015,0.019,0.022c5.621,6.352,23.01,28.218,9.623,41.605c-8.113,8.114-42.378,37.778-60.127,51.702  c-1.873,1.469-3.677,3.069-5.362,4.754l-1.391,1.39c-4.909,4.91-5.239,12.907-0.734,17.826c2.436,2.66,5.757,4.125,9.352,4.125  c3.346,0,6.501-1.292,8.884-3.64c1.657-1.663,3.248-3.462,4.711-5.332c13.451-17.181,44.342-53.211,53.312-62.181  c3.29-3.29,7.383-4.958,12.167-4.958c11.95,0,25.108,10.715,29.702,14.815l6.272-6.272L72.532,63.541L66.246,69.826z M76.067,60.005  l60.142,60.142l15.308-15.308L91.375,44.698L76.067,60.005z M94.828,41.08l60.306,60.306c5.467-4.997,22.147-20.438,27.728-27.858  c3.542-4.709,5.723-9.336,6.973-12.57l-4.281,2.504c-0.939,0.548-2.125,0.427-2.935-0.3c-0.809-0.728-1.054-1.896-0.606-2.887  l3.534-7.825l-1.008-1.008l-5.834,4.667c-0.902,0.723-2.182,0.731-3.095,0.022c-0.913-0.708-1.221-1.95-0.745-3.003l3.534-7.825  l-1.371-1.371l-8.653,5.591c-0.957,0.617-2.209,0.512-3.048-0.258s-1.051-2.009-0.517-3.015l5.044-9.491l-1.682-1.682l-6.556,4.28  c-0.967,0.632-2.243,0.518-3.084-0.276c-0.84-0.794-1.026-2.061-0.45-3.063l3.295-5.73l-4.384,2.222  c-0.861,0.437-1.895,0.338-2.658-0.251c-0.763-0.589-1.12-1.564-0.917-2.507l1.675-7.752l-3.262-3.261l-4.47,3.048  c-0.865,0.59-2.006,0.579-2.859-0.03c-0.853-0.608-1.236-1.683-0.961-2.693l1.847-6.77l-0.639-0.638l-3.459,2.212  c-0.893,0.57-2.046,0.517-2.883-0.134c-0.835-0.651-1.17-1.758-0.835-2.763l1.623-4.87l-0.805-0.805  c-2.667,0.803-9.105,3.092-15.706,8.057C115.266,18.933,99.825,35.613,94.828,41.08z M17.556,186.902  c-2.202,0-4.272-0.857-5.829-2.415c-1.557-1.557-2.415-3.627-2.415-5.829c0-2.202,0.858-4.272,2.415-5.829  c1.557-1.557,3.626-2.414,5.829-2.414c2.202,0,4.272,0.857,5.829,2.415c3.214,3.213,3.214,8.443,0,11.657  C21.828,186.044,19.758,186.902,17.556,186.902z M17.556,175.416c-0.866,0-1.681,0.337-2.293,0.95  c-0.613,0.613-0.951,1.427-0.951,2.293s0.338,1.681,0.95,2.293c1.226,1.225,3.361,1.225,4.587,0c1.264-1.264,1.264-3.322,0-4.586  C19.237,175.753,18.422,175.416,17.556,175.416z" fill="#FFFFFF"/>
<g>
</g>
<g>
</g>
<g>
</g>
<g>
</g>
<g>
</g>
<g>
</g>
<g>
</g>
<g>
</g>
<g>
</g>
<g>
</g>
<g>
</g>
<g>
</g>
<g>
</g>
<g>
</g>
<g>
</g>
</svg>
