<?xml version="1.0"?>
<svg xmlns="http://www.w3.org/2000/svg" id="Capa_1" enable-background="new 0 0 512 512" height="512px" viewBox="0 0 512 512" width="512px"><g><path d="m448.121 61.643h-24.304v-34.143c0-15.164-12.337-27.5-27.5-27.5h-318.657c-15.163 0-27.5 12.336-27.5 27.5v34.143h-14.917c-13.785 0-25 11.215-25 25s11.215 25 25 25h14.917v34.143c0 15.164 12.337 27.5 27.5 27.5h48.364v71.194c0 14.601 11.879 26.48 26.48 26.48s26.48-11.879 26.48-26.479l.009-71.195h100.422c3.638 10.284 13.454 17.674 24.969 17.674 11.518 0 21.338-7.39 24.977-17.674h66.955c15.163 0 27.5-12.336 27.5-27.5v-34.143h24.304c2.005 0 3.636 1.631 3.636 3.635v109.008c0 2.004-1.631 3.635-3.635 3.635h-164.197c-29.574 0-53.635 24.061-53.635 53.635v27.189c-11.288 3.426-19.528 13.926-19.528 26.318v149.437c0 15.164 12.337 27.5 27.5 27.5h35.479c15.163 0 27.5-12.336 27.5-27.5v-66.682c0-4.142-3.357-7.5-7.5-7.5s-7.5 3.358-7.5 7.5v66.682c0 6.893-5.607 12.5-12.5 12.5h-35.479c-6.893 0-12.5-5.607-12.5-12.5v-149.437c0-6.893 5.607-12.5 12.5-12.5h35.479c6.893 0 12.5 5.607 12.5 12.5v50.069c0 4.142 3.357 7.5 7.5 7.5s7.5-3.358 7.5-7.5v-50.069c0-12.906-8.94-23.759-20.95-26.706v-26.801c0-2.005 1.631-3.636 3.636-3.636h105.597c4.143 0 7.5-3.358 7.5-7.5s-3.357-7.5-7.5-7.5h-105.598c-10.275 0-18.636 8.36-18.636 18.636v26.006h-20v-26.007c0-21.304 17.331-38.635 38.635-38.635h164.198c10.275 0 18.635-8.359 18.635-18.635v-109.007c0-10.275-8.36-18.635-18.636-18.635h-24.304v-20h24.304c21.304 0 38.636 17.331 38.636 38.635v109.008c0 21.303-17.331 38.635-38.635 38.635h-25.914c-4.143 0-7.5 3.358-7.5 7.5s3.357 7.5 7.5 7.5h25.914c29.574 0 53.635-24.061 53.635-53.635v-109.008c0-29.574-24.061-53.635-53.636-53.635zm-412.878 35c-5.514 0-10-4.486-10-10s4.486-10 10-10h14.917v20zm42.417 61.643c-6.893 0-12.5-5.607-12.5-12.5v-118.286c0-6.893 5.607-12.5 12.5-12.5h48.364v143.286zm150.794-7.326c14.602 0 26.48-11.879 26.48-26.48v-13.2c0-6.336 5.154-11.49 11.49-11.49 6.33 0 11.479 5.154 11.479 11.49v47.006h-98.909l.01-77.006c0-6.336 5.149-11.49 11.48-11.49 6.336 0 11.49 5.154 11.49 11.49v43.2c.001 14.601 11.88 26.48 26.48 26.48zm180.363-5.174c0 6.893-5.607 12.5-12.5 12.5h-65.443v-72.8c0-4.142-3.357-7.5-7.5-7.5s-7.5 3.358-7.5 7.5v78.994c0 6.33-5.154 11.48-11.489 11.48-6.33 0-11.48-5.15-11.48-11.48v-53.2c0-14.607-11.879-26.49-26.479-26.49-14.606 0-26.49 11.883-26.49 26.49v13.2c0 6.33-5.15 11.48-11.48 11.48s-11.48-5.15-11.48-11.48v-43.2c0-14.607-11.884-26.49-26.49-26.49-14.601 0-26.48 11.883-26.48 26.489l-.011 84.504v.002.003l-.01 78.691c0 6.33-5.149 11.48-11.48 11.48-6.33 0-11.48-5.15-11.48-11.48v-229.479h174.85v37.8c0 4.142 3.357 7.5 7.5 7.5s7.5-3.358 7.5-7.5v-37.8h65.443c6.893 0 12.5 5.607 12.5 12.5v118.286z" fill="#FFFFFF"/><path d="m152.505 284.385c-14.602 0-26.48 11.879-26.48 26.481v5.409c0 14.602 11.879 26.48 26.48 26.48 14.602 0 26.481-11.879 26.481-26.48v-5.409c0-14.601-11.88-26.481-26.481-26.481zm11.481 31.89c0 6.331-5.15 11.48-11.481 11.48-6.33 0-11.48-5.15-11.48-11.48v-5.409c0-6.331 5.15-11.481 11.48-11.481 6.331 0 11.481 5.15 11.481 11.481z" fill="#FFFFFF"/><path d="m248.5 469.589c0 4.142 3.358 7.5 7.5 7.5s7.5-3.358 7.5-7.5c0-4.142-3.358-7.5-7.5-7.5s-7.5 3.358-7.5 7.5z" fill="#FFFFFF"/></g></svg>
