<?xml version="1.0"?>
<svg xmlns="http://www.w3.org/2000/svg" id="Capa_1" enable-background="new 0 0 512.002 512.002" height="512px" viewBox="0 0 512.002 512.002" width="512px"><g><path d="m435.721 45.747h-11.195v-12.308c0-18.439-15-33.439-33.439-33.439-13.13 0-283.86 0-298.39 0-17.226 0-31.447 13.094-33.243 29.852h-8.699c-13.783 0-24.996 11.213-24.996 24.996v26.799c0 13.783 11.213 24.996 24.995 24.996h8.7c1.796 16.757 16.017 29.852 33.243 29.852h87.579v37.838c0 17.093 13.906 31 31 31s31-13.907 31-31v-10.519c4.674 2.828 10.15 4.457 16 4.457 17.094 0 31-13.907 31-31v-.776h42.625c4.143 0 7.5-3.358 7.5-7.5s-3.357-7.5-7.5-7.5h-42.625v-19.309c4.674 2.828 10.15 4.457 16 4.457 17.094 0 31-13.907 31-31v-60.643h54.811c10.167 0 18.438 8.271 18.438 18.439v69.616c0 10.167-8.271 18.439-18.438 18.439h-24.186c-4.143 0-7.5 3.358-7.5 7.5s3.357 7.5 7.5 7.5h24.186c18.438 0 33.438-15 33.438-33.439v-12.308h11.195c3.045 0 5.521 2.477 5.521 5.521v84.897c0 2.644-1.885 4.924-4.481 5.422l-157.963 30.29c-29.854 5.725-51.521 31.942-51.521 62.339v3.495c-6.151 3.367-10.333 9.9-10.333 17.393v13.487c-12.256 2.523-21.5 13.396-21.5 26.388v145.083c0 14.855 12.085 26.94 26.939 26.94h54.787c14.855 0 26.94-12.085 26.94-26.94v-55.042c0-4.142-3.357-7.5-7.5-7.5s-7.5 3.358-7.5 7.5v55.042c0 6.583-5.356 11.94-11.94 11.94h-54.787c-6.583 0-11.939-5.356-11.939-11.94v-145.083c0-6.583 5.356-11.94 11.939-11.94h54.787c6.584 0 11.94 5.356 11.94 11.94v55.042c0 4.142 3.357 7.5 7.5 7.5s7.5-3.358 7.5-7.5v-55.042c0-12.992-9.244-23.864-21.5-26.388v-13.487c0-7.493-4.182-14.026-10.334-17.393v-3.494c0-8.848 6.307-16.479 14.995-18.145l157.963-30.29c23.762-4.556 41.008-25.423 41.008-49.617v-84.897c.002-27.857-22.662-50.521-50.52-50.521zm-394.962 35.899v-26.798c0-5.512 4.484-9.996 9.996-9.996h8.504v46.791h-8.505c-5.511-.001-9.995-4.485-9.995-9.997zm51.939 39.848c-10.167 0-18.438-8.272-18.438-18.439 0-7.097 0-62.063 0-69.616-.001-10.168 8.271-18.439 18.438-18.439h40.579v60.642c0 17.093 13.906 31 31 31 5.85 0 11.326-1.629 16-4.457v19.309zm228.579-45.852c0 8.822-7.178 16-16 16s-16-7.178-16-16c0-4.142-3.357-7.5-7.5-7.5s-7.5 3.358-7.5 7.5v61.628c0 8.822-7.178 16-16 16s-16-7.178-16-16c0-4.142-3.357-7.5-7.5-7.5s-7.5 3.358-7.5 7.5v37.062c0 8.822-7.178 16-16 16s-16-7.178-16-16c0-11.379 0-82.657 0-98.69 0-4.142-3.357-7.5-7.5-7.5s-7.5 3.358-7.5 7.5c0 8.822-7.178 16-16 16s-16-7.178-16-16v-60.642h173zm-89.333 237.397v-12.935c0-2.655 2.16-4.815 4.815-4.815h26.036c2.655 0 4.815 2.16 4.815 4.815v12.935zm239.299-131.873c0 17.01-12.126 31.682-28.832 34.885l-157.964 30.29c-14.7 2.819-27.17 15.435-27.17 33.949h-15c0-25.746 17.643-44.518 39.346-48.68l157.963-30.29c9.652-1.851 16.657-10.327 16.657-20.154v-84.898c0-11.315-9.206-20.521-20.521-20.521h-11.195v-15h11.195c19.587 0 35.521 15.935 35.521 35.521z" fill="#FFFFFF"/></g></svg>
