<?xml version="1.0"?>
<svg xmlns="http://www.w3.org/2000/svg" id="Capa_1" enable-background="new 0 0 512 512" height="512px" viewBox="0 0 512 512" width="512px"><g><path d="m451.61 69.591h-29.884v-36.714c0-18.129-14.748-32.877-32.877-32.877h-235.629c-4.143 0-7.5 3.358-7.5 7.5s3.357 7.5 7.5 7.5h235.629c9.857 0 17.877 8.02 17.877 17.877v32.902h-170.463c-10.252 0-18.592 8.34-18.592 18.592v17.989c0 5.055-4.112 9.168-9.168 9.168-5.055 0-9.167-4.112-9.167-9.168v-17.989c0-10.251-8.34-18.592-18.592-18.592h-26.861c-10.252 0-18.592 8.34-18.592 18.592v52.041c0 5.055-4.112 9.168-9.168 9.168-5.055 0-9.167-4.112-9.167-9.168v-23.751c0-4.142-3.357-7.5-7.5-7.5-4.142 0-7.5 3.358-7.5 7.5v23.751 42.11c0 5.055-4.112 9.167-9.168 9.167-5.055 0-9.167-4.112-9.167-9.167v-94.151c0-10.251-8.34-18.592-18.592-18.592h-24.055v-32.902c0-9.857 8.02-17.877 17.877-17.877h64.369c4.143 0 7.5-3.358 7.5-7.5s-3.357-7.5-7.5-7.5h-64.369c-18.128 0-32.877 14.748-32.877 32.877v86.267c0 18.129 14.749 32.877 32.877 32.877h9.77v26.502c0 13.326 10.841 24.167 24.167 24.167s24.168-10.841 24.168-24.167v-19.749c2.828 1.164 5.924 1.806 9.167 1.806 7.38 0 13.993-3.328 18.43-8.559h139.637c4.143 0 7.5-3.358 7.5-7.5s-3.357-7.5-7.5-7.5h-133.914c.005-.203.015-.405.015-.609v-52.041c0-1.98 1.611-3.592 3.592-3.592h26.861c1.98 0 3.592 1.611 3.592 3.592v17.989c0 13.326 10.841 24.168 24.167 24.168s24.168-10.841 24.168-24.168v-17.989c0-1.98 1.611-3.592 3.592-3.592h170.463v38.365c0 9.857-8.02 17.877-17.877 17.877h-74.659c-4.143 0-7.5 3.358-7.5 7.5s3.357 7.5 7.5 7.5h74.659c18.129 0 32.877-14.748 32.877-32.877v-3.789h16.423c1.165 0 2.113.948 2.113 2.113v48.765c0 .87-.523 1.641-1.329 1.963l-206.198 82.35c-13.152 5.253-21.65 17.798-21.65 31.961v23.282h-.155c-6.33 0-11.48 5.15-11.48 11.48v24.211c-3.466.304-6.309 2.976-6.773 6.484l-13.362 100.805c-2.116 15.963 2.756 32.063 13.367 44.174 10.61 12.111 25.931 19.057 42.032 19.057 16.102 0 31.423-6.946 42.034-19.056 10.611-12.111 15.484-28.212 13.368-44.174l-13.362-100.805c-.465-3.509-3.308-6.18-6.774-6.484v-24.211c0-6.331-5.15-11.48-11.48-11.48h-1.651v-14.163c0-.87.521-1.64 1.329-1.963l206.198-82.351c13.152-5.253 21.65-17.798 21.65-31.961v-71.346c0-18.976-15.44-34.415-34.416-34.415zm-392.759 67.43c-9.858 0-17.877-8.02-17.877-17.877v-38.365h24.056c1.98 0 3.592 1.611 3.592 3.592v52.65zm196.129 183.768v20.661h-40.531v-20.661zm20.268 129.951c1.547 11.678-2.018 23.458-9.781 32.318s-18.972 13.941-30.752 13.941-22.989-5.082-30.752-13.942c-7.764-8.86-11.328-20.64-9.78-32.318l12.499-94.29h.268 55.531.268zm195.778-275.388c0 7.99-4.794 15.067-12.214 18.031l-206.197 82.35c-6.541 2.612-10.767 8.85-10.767 15.893v14.163h-15.764v-23.282c0-7.99 4.794-15.067 12.214-18.031l206.198-82.351c6.54-2.612 10.766-8.851 10.766-15.893v-48.765c0-9.436-7.677-17.113-17.113-17.113h-16.423v-15.763h29.884c10.706 0 19.416 8.71 19.416 19.416z" fill="#FFFFFF"/></g></svg>
