<?xml version="1.0"?>
<svg xmlns="http://www.w3.org/2000/svg" id="Layer_1" height="512px" viewBox="0 0 512 512" width="512px" data-name="Layer 1"><path d="m472.236 21.757a6 6 0 0 0 -7.7-.659l-49.177 34.702a6.012 6.012 0 0 0 -1.879 2.162l-12.4 24.153-168.964 168.965-5.916-5.916a15.939 15.939 0 0 0 -22.542 0l-2.159 2.16a15.933 15.933 0 0 0 -1.126 21.286 39.055 39.055 0 0 1 -38.936 36.726 6.2 6.2 0 0 0 -.763.048 44.826 44.826 0 0 0 -28.353 13.016l-97.81 97.811a44.855 44.855 0 0 0 0 63.437 41.343 41.343 0 0 0 29.457 12.411c11.4 0 23.008-4.7 32.347-14.043l97.812-97.81a44.838 44.838 0 0 0 13.015-28.391 6.026 6.026 0 0 0 .044-.727c0-21.709 15.441-39.514 34.861-40.808a15.931 15.931 0 0 0 21.253-1.15l2.162-2.161a15.959 15.959 0 0 0 0-22.541l-5.916-5.916 168.97-168.967 24.152-12.4a6.01 6.01 0 0 0 2.162-1.878l34.7-49.177a6 6 0 0 0 -.66-7.7zm-338.113 311.809a14.435 14.435 0 0 1 -3.315 15.3l-63.508 63.508a14.43 14.43 0 0 1 -15.3 3.314zm-37.283 126.952a14.482 14.482 0 0 1 3.309-15.291l63.511-63.511a14.482 14.482 0 0 1 15.293-3.31zm98.347-109.761a32.818 32.818 0 0 1 -7.44 18.639 26.515 26.515 0 0 0 -32.571 3.834l-63.512 63.511a26.517 26.517 0 0 0 -3.751 32.705l-.082.082c-13.247 13.246-32.52 13.946-44.831 1.631a32.857 32.857 0 0 1 0-46.466l.078-.077a26.477 26.477 0 0 0 32.708-3.758l63.511-63.51a26.484 26.484 0 0 0 3.842-32.577 32.819 32.819 0 0 1 18.663-7.437 51.1 51.1 0 0 0 48.998-38.163l20.821 20.821c-20.861 6.008-36.298 26.467-36.434 50.765zm61.792-52.274-2.162 2.162a4.036 4.036 0 0 1 -5.57 0l-39.264-39.265a3.94 3.94 0 0 1 0-5.571l2.16-2.16a4.034 4.034 0 0 1 5.571 0l39.264 39.264a3.942 3.942 0 0 1 .001 5.57zm188.9-211.337-23.679 12.154a6.019 6.019 0 0 0 -1.5 1.1l-169.637 169.628-10.463-10.463 169.632-169.632a5.981 5.981 0 0 0 1.1-1.5l12.154-23.677 43.842-30.937 9.488 9.487z" fill="#FFFFFF"/></svg>
